<?xml version="1.0" encoding="iso-8859-1"?>
<!-- Generator: Adobe Illustrator 19.0.0, SVG Export Plug-In . SVG Version: 6.00 Build 0)  -->
<svg version="1.1" id="Layer_1" xmlns="http://www.w3.org/2000/svg" xmlns:xlink="http://www.w3.org/1999/xlink" x="0px" y="0px" width="20px"
	 height="20px"
	 viewBox="0 0 14 14" style="enable-background:new 0 0 14 14;" xml:space="preserve">
<symbol  id="New_Symbol_19" viewBox="-8.501 -8.501 17.001 17">
	<g id="XMLID_1921_">
		<g id="XMLID_1922_">
			<path id="XMLID_1964_" style="fill:#1D5DAA;" d="M8.049,2.666L2.666,8.049C2.375,8.339,1.987,8.499,1.574,8.499
				c-0.413,0-0.801-0.16-1.091-0.451L-8.05-0.484c-0.291-0.291-0.451-0.678-0.451-1.091c0-0.413,0.16-0.801,0.451-1.091l0.664-0.664
				l0,0l0,0l4.461-4.461h-0.618c-0.196,0-0.354-0.159-0.354-0.354c0-0.196,0.159-0.354,0.354-0.354h1.965l0.001,0l0.001,0l5.115,0
				c0.196,0,0.354,0.159,0.354,0.354c0,0.196-0.159,0.354-0.354,0.354l-3.768,0l8.275,8.275C8.651,1.085,8.651,2.064,8.049,2.666z
				 M7.548,0.984l-8.533-8.533c-0.156-0.156-0.366-0.243-0.589-0.243h-0.003c-0.223,0-0.432,0.087-0.589,0.243L-6.635-3.08
				L1.56,5.115c0.138,0.138,0.138,0.363,0,0.501c-0.138,0.138-0.363,0.138-0.501,0l-8.195-8.195l-0.414,0.414
				c-0.157,0.157-0.243,0.366-0.243,0.59s0.086,0.434,0.243,0.59l8.533,8.533c0.157,0.157,0.366,0.243,0.59,0.243
				c0.224,0,0.434-0.086,0.59-0.243l1.916-1.916l-8.195-8.195c-0.138-0.138-0.138-0.363,0-0.501c0.069-0.069,0.16-0.104,0.25-0.104
				c0.091,0,0.181,0.035,0.25,0.104l8.195,8.195l2.966-2.966C7.874,1.839,7.874,1.31,7.548,0.984z"/>
			<path id="XMLID_1960_" style="fill:#1D5DAA;" d="M0.226-1.729c-0.138,0.138-0.362,0.138-0.501,0l-2.787-2.787
				c-0.138-0.138-0.138-0.363,0-0.501c0.069-0.069,0.16-0.104,0.25-0.104c0.091,0,0.181,0.035,0.25,0.104L0.226-2.23
				C0.364-2.092,0.364-1.868,0.226-1.729z"/>
			<path id="XMLID_1959_" style="fill:#1D5DAA;" d="M-0.917-4.375l-1.143-1.143c-0.138-0.138-0.138-0.363,0-0.501
				c0.069-0.069,0.16-0.104,0.25-0.104c0.091,0,0.181,0.035,0.25,0.104l1.143,1.143c0.138,0.138,0.138,0.363,0,0.501
				S-0.779-4.237-0.917-4.375z"/>
			<path id="XMLID_1958_" style="fill:#1D5DAA;" d="M0.134-3.323l-0.15-0.15c-0.138-0.138-0.138-0.363,0-0.501
				c0.069-0.069,0.16-0.104,0.25-0.104s0.181,0.035,0.25,0.104l0.15,0.15c0.138,0.138,0.138,0.363,0,0.501
				C0.497-3.185,0.273-3.185,0.134-3.323z"/>
			<path id="XMLID_1949_" style="fill:#1D5DAA;" d="M5.016,3.061C4.95,3.128,4.86,3.165,4.766,3.165
				c-0.094,0-0.184-0.037-0.25-0.104L3.013,1.559c-0.066-0.066-0.104-0.156-0.104-0.25c0-0.094,0.037-0.184,0.104-0.25l1.002-1.002
				c0.069-0.069,0.16-0.104,0.25-0.104c0.091,0,0.181,0.035,0.25,0.104l1.503,1.503c0.138,0.138,0.138,0.363,0,0.501L5.016,3.061z
				 M4.265,0.807L3.764,1.308L4.766,2.31l0.501-0.501L4.265,0.807z"/>
			<path id="XMLID_1924_" style="fill:#1D5DAA;" d="M2.136,5.837c0.091,0,0.181,0.035,0.25,0.104l0.15,0.15
				c0.138,0.138,0.138,0.363,0,0.501c-0.138,0.138-0.363,0.138-0.501,0l-0.15-0.15c-0.138-0.138-0.138-0.363,0-0.501
				C1.955,5.872,2.045,5.837,2.136,5.837z"/>
			<path id="XMLID_1923_" style="fill:#1D5DAA;" d="M-4.941-3.389l-0.15-0.15c-0.138-0.138-0.138-0.363,0-0.501
				c0.069-0.069,0.16-0.104,0.25-0.104S-4.659-4.11-4.59-4.04l0.15,0.15c0.138,0.138,0.138,0.363,0,0.501
				C-4.578-3.251-4.802-3.251-4.941-3.389z"/>
		</g>
	</g>
</symbol>
<symbol  id="New_Symbol_28" viewBox="-9.113 -7.517 18.226 15.034">
	
		<polygon id="XMLID_734_" style="fill:none;stroke:#1D5DAA;stroke-width:0.7276;stroke-linecap:round;stroke-linejoin:round;stroke-miterlimit:10;" points="
		8.749,-3.774 1.451,-7.153 1.451,0.145 8.749,3.524 	"/>
	
		<path id="XMLID_731_" style="fill:none;stroke:#1D5DAA;stroke-width:0.7276;stroke-linecap:round;stroke-linejoin:round;stroke-miterlimit:10;" d="
		M1.129-0.146"/>
	<g id="XMLID_698_">
		
			<polyline id="XMLID_730_" style="fill:none;stroke:#1D5DAA;stroke-width:0.7276;stroke-linecap:round;stroke-linejoin:round;stroke-miterlimit:10;" points="
			-6.17,-1.563 -6.17,-0.021 -6.17,3.774 1.129,7.153 		"/>
		
			<line id="XMLID_729_" style="fill:none;stroke:#1D5DAA;stroke-width:0.7276;stroke-linecap:round;stroke-linejoin:round;stroke-miterlimit:10;" x1="-6.17" y1="3.774" x2="1.451" y2="0.145"/>
		
			<line id="XMLID_726_" style="fill:none;stroke:#1D5DAA;stroke-width:0.7276;stroke-linecap:round;stroke-linejoin:round;stroke-miterlimit:10;" x1="1.129" y1="7.153" x2="8.749" y2="3.524"/>
		
			<polyline id="XMLID_723_" style="fill:none;stroke:#1D5DAA;stroke-width:0.7276;stroke-linecap:round;stroke-linejoin:round;stroke-miterlimit:10;" points="
			-5.225,-3.975 -1.792,-5.609 1.451,-7.153 		"/>
	</g>
	
		<path id="XMLID_555_" style="fill:none;stroke:#505050;stroke-width:0.7276;stroke-linecap:round;stroke-linejoin:round;stroke-miterlimit:10;" d="
		M-2.021-5.5"/>
	<g id="XMLID_553_">
		<path id="XMLID_554_" style="fill:#1D5DAA;stroke:#1D5DAA;stroke-width:0.5;stroke-miterlimit:10;" d="M-1.313-0.454l-2.884,1.101
			c-0.176,0.067-0.373-0.021-0.44-0.197c-0.067-0.176,0.021-0.373,0.197-0.44l2.114-0.807l-6.372-2.851
			C-8.869-3.726-8.9-3.907-8.823-4.079c0.077-0.172,0.232-0.27,0.404-0.193l6.372,2.851l-0.807-2.114
			c-0.067-0.176,0.021-0.373,0.197-0.44c0.088-0.034,0.181-0.028,0.261,0.007c0.08,0.036,0.146,0.102,0.179,0.19l1.101,2.884
			C-1.049-0.718-1.137-0.521-1.313-0.454z"/>
	</g>
</symbol>
<symbol  id="New_Symbol_29" viewBox="-9.26 -7.517 18.52 15.034">
	
		<path id="XMLID_693_" style="fill:none;stroke:#505050;stroke-width:0.7276;stroke-linecap:round;stroke-linejoin:round;stroke-miterlimit:10;" d="
		M-1.598-0.146"/>
	<g id="XMLID_538_">
		
			<polyline id="XMLID_686_" style="fill:none;stroke:#1D5DAA;stroke-width:0.7276;stroke-linecap:round;stroke-linejoin:round;stroke-miterlimit:10;" points="
			4.63,-4.419 -1.276,-7.153 -1.276,0.145 6.022,3.524 6.022,-1.917 		"/>
		
			<polyline id="XMLID_670_" style="fill:none;stroke:#1D5DAA;stroke-width:0.7276;stroke-linecap:round;stroke-linejoin:round;stroke-miterlimit:10;" points="
			-8.896,-3.525 -8.896,-0.021 -8.896,3.774 -1.598,7.153 		"/>
		
			<line id="XMLID_656_" style="fill:none;stroke:#1D5DAA;stroke-width:0.7276;stroke-linecap:round;stroke-linejoin:round;stroke-miterlimit:10;" x1="-8.896" y1="3.774" x2="-1.276" y2="0.145"/>
		
			<line id="XMLID_652_" style="fill:none;stroke:#1D5DAA;stroke-width:0.7276;stroke-linecap:round;stroke-linejoin:round;stroke-miterlimit:10;" x1="-1.598" y1="7.153" x2="6.022" y2="3.524"/>
		
			<polyline id="XMLID_651_" style="fill:none;stroke:#1D5DAA;stroke-width:0.7276;stroke-linecap:round;stroke-linejoin:round;stroke-miterlimit:10;" points="
			-8.896,-3.525 -4.519,-5.609 -1.276,-7.153 		"/>
	</g>
	
		<path id="XMLID_530_" style="fill:none;stroke:#505050;stroke-width:0.7276;stroke-linecap:round;stroke-linejoin:round;stroke-miterlimit:10;" d="
		M-4.748-5.5"/>
	<path id="XMLID_508_" style="fill:#1D5DAA;stroke:#1D5DAA;stroke-width:0.5;stroke-miterlimit:10;" d="M8.993-4.556L8.06-1.83
		C8.003-1.664,7.822-1.575,7.656-1.632C7.49-1.689,7.401-1.87,7.458-2.036l0.684-1.998L2.291-1.168
		C2.133-1.091,1.985-1.177,1.908-1.335C1.83-1.492,1.853-1.662,2.011-1.74l5.851-2.867L5.863-5.291
		C5.697-5.347,5.608-5.528,5.665-5.695c0.028-0.083,0.088-0.147,0.161-0.183C5.9-5.913,5.986-5.921,6.07-5.893L8.795-4.96
		C8.961-4.903,9.05-4.722,8.993-4.556z"/>
</symbol>
<g id="XMLID_533_">
	<g id="XMLID_1015_">
		<path id="XMLID_1123_" style="fill:#FFFFFF;" d="M81.612,5.222h-1.497c-0.241,0-0.439-0.132-0.531-0.355s-0.045-0.456,0.124-0.626
			l1.058-1.058c0.156-0.156,0.241-0.363,0.241-0.583c0-0.22-0.086-0.427-0.241-0.583l-1.349-1.349c-0.311-0.311-0.854-0.312-1.165,0
			l-1.058,1.058c-0.17,0.17-0.405,0.217-0.626,0.125c-0.222-0.092-0.355-0.29-0.355-0.531v-1.497C76.213-0.631,75.844-1,75.39-1
			h-1.908c-0.454,0-0.824,0.369-0.824,0.824v1.497c0,0.241-0.132,0.439-0.355,0.531c-0.222,0.093-0.456,0.045-0.626-0.125
			l-1.058-1.058c-0.312-0.312-0.854-0.311-1.165,0l-1.349,1.349c-0.156,0.156-0.241,0.363-0.241,0.583
			c0,0.22,0.086,0.427,0.241,0.583l1.058,1.058c0.17,0.17,0.216,0.404,0.124,0.626s-0.29,0.355-0.531,0.355h-1.497
			c-0.454,0-0.824,0.369-0.824,0.824v1.908c0,0.455,0.369,0.824,0.824,0.824h1.497c0.241,0,0.439,0.132,0.531,0.355
			s0.045,0.456-0.124,0.626l-1.058,1.058c-0.156,0.156-0.241,0.363-0.241,0.583c0,0.22,0.086,0.427,0.241,0.583l1.349,1.349
			c0.311,0.311,0.854,0.312,1.165,0l1.058-1.058c0.17-0.17,0.404-0.217,0.626-0.124c0.222,0.092,0.355,0.29,0.355,0.531v1.497
			c0,0.454,0.369,0.824,0.824,0.824h1.908c0.454,0,0.824-0.369,0.824-0.824v-1.497c0-0.241,0.132-0.439,0.355-0.531
			c0.223-0.092,0.456-0.045,0.626,0.124l1.058,1.058c0.312,0.312,0.854,0.311,1.165,0l1.349-1.349
			c0.156-0.156,0.241-0.363,0.241-0.583c0-0.22-0.086-0.427-0.241-0.583l-1.058-1.058c-0.17-0.17-0.216-0.404-0.124-0.626
			s0.291-0.355,0.531-0.355h1.497c0.454,0,0.824-0.369,0.824-0.824V6.046C82.436,5.592,82.066,5.222,81.612,5.222z M81.843,7.954
			c0,0.127-0.104,0.231-0.231,0.231h-1.497c-0.481,0-0.895,0.276-1.079,0.721c-0.184,0.444-0.087,0.932,0.253,1.272l1.058,1.058
			c0.09,0.09,0.09,0.237,0,0.327l-1.349,1.349c-0.09,0.09-0.237,0.091-0.327,0l-1.058-1.058c-0.34-0.34-0.828-0.437-1.272-0.253
			c-0.444,0.184-0.721,0.597-0.721,1.079v1.497c0,0.127-0.104,0.231-0.231,0.231h-1.908c-0.127,0-0.231-0.104-0.231-0.231v-1.497
			c0-0.481-0.276-0.895-0.721-1.079c-0.149-0.062-0.303-0.092-0.454-0.092c-0.3,0-0.592,0.119-0.818,0.345l-1.058,1.058
			c-0.091,0.091-0.237,0.09-0.327,0l-1.349-1.349c-0.09-0.09-0.09-0.237,0-0.327l1.058-1.058c0.34-0.34,0.437-0.828,0.253-1.272
			c-0.184-0.444-0.597-0.72-1.079-0.72h-1.497c-0.127,0-0.231-0.104-0.231-0.231V6.046c0-0.127,0.104-0.231,0.231-0.231h1.497
			c0.481,0,0.895-0.276,1.079-0.721c0.184-0.444,0.087-0.932-0.253-1.272l-1.058-1.058c-0.09-0.09-0.09-0.237,0-0.327l1.349-1.349
			c0.09-0.09,0.237-0.09,0.327,0l1.058,1.058c0.34,0.34,0.827,0.437,1.272,0.253c0.444-0.184,0.721-0.597,0.721-1.078v-1.497
			c0-0.127,0.104-0.231,0.231-0.231h1.908c0.128,0,0.231,0.104,0.231,0.231v1.497c0,0.481,0.276,0.895,0.721,1.079
			c0.445,0.184,0.932,0.087,1.272-0.253l1.058-1.058c0.091-0.09,0.237-0.09,0.327,0l1.349,1.349c0.09,0.09,0.09,0.237,0,0.327
			L79.29,3.822c-0.34,0.34-0.437,0.828-0.253,1.272c0.184,0.444,0.597,0.721,1.079,0.721h1.497c0.127,0,0.231,0.103,0.231,0.231
			V7.954z"/>
		<path id="XMLID_1120_" style="fill:#FFFFFF;" d="M74.436,4.333c-1.471,0-2.667,1.196-2.667,2.667s1.196,2.667,2.667,2.667
			S77.102,8.471,77.102,7S75.906,4.333,74.436,4.333z M74.436,9.074c-1.143,0-2.074-0.931-2.074-2.074s0.931-2.074,2.074-2.074
			S76.51,5.857,76.51,7S75.579,9.074,74.436,9.074z"/>
	</g>
	<rect id="XMLID_199_" x="64.436" y="-3" style="fill:none;" width="20" height="20"/>
</g>
<g id="XMLID_531_">
	<g id="XMLID_198_">
		<path id="XMLID_202_" style="fill:#CCCCCC;" d="M135.715,11.053l-2.516-1.258c-0.237-0.119-0.385-0.357-0.385-0.623v-0.89
			c0.06-0.074,0.124-0.158,0.189-0.25c0.326-0.461,0.588-0.974,0.778-1.527c0.372-0.17,0.613-0.538,0.613-0.953V4.498
			c0-0.254-0.095-0.499-0.263-0.691V2.406c0.015-0.145,0.073-1.007-0.551-1.719c-0.541-0.617-1.419-0.93-2.61-0.93
			s-2.069,0.313-2.61,0.93c-0.378,0.431-0.505,0.917-0.544,1.266c-0.451-0.233-0.983-0.352-1.588-0.352
			c-2.736,0-2.896,2.332-2.897,2.37v1.206c-0.171,0.186-0.263,0.401-0.263,0.614v0.91c0,0.284,0.127,0.549,0.345,0.728
			c0.217,0.819,0.752,1.438,0.96,1.655v0.722c0,0.207-0.113,0.397-0.308,0.504l-1.752,1.099c-0.671,0.366-1.088,1.069-1.088,1.833v1
			h3.687h0.527h11.588v-1.065C137.028,12.272,136.525,11.458,135.715,11.053z M124.913,13.127v0.589h-3.16v-0.473
			c0-0.572,0.312-1.097,0.827-1.378l1.752-1.099c0.351-0.191,0.569-0.559,0.569-0.959V8.861l-0.084-0.078
			c-0.007-0.006-0.707-0.667-0.913-1.568l-0.024-0.104l-0.09-0.058c-0.121-0.078-0.194-0.21-0.194-0.351v-0.91
			c0-0.095,0.065-0.208,0.177-0.309l0.087-0.078l-0.001-1.417c0.005-0.076,0.142-1.859,2.371-1.859c0.63,0,1.161,0.146,1.58,0.433
			v1.246c-0.169,0.192-0.263,0.438-0.263,0.691v1.053c0,0.08,0.009,0.159,0.027,0.235c0.007,0.031,0.021,0.058,0.031,0.088
			c0.014,0.044,0.026,0.09,0.046,0.132c0,0.001,0.001,0.001,0.001,0.001c0.067,0.139,0.166,0.263,0.289,0.363
			c0.001,0.005,0.003,0.009,0.004,0.014c0.016,0.06,0.032,0.12,0.05,0.179l0.021,0.069c0.004,0.012,0.008,0.024,0.012,0.037
			c0.009,0.028,0.018,0.057,0.028,0.085c0.016,0.046,0.032,0.094,0.052,0.146c0.008,0.022,0.017,0.041,0.026,0.062
			c0.022,0.055,0.043,0.108,0.066,0.161c0.006,0.013,0.01,0.026,0.016,0.039l0.015,0.033c0.007,0.015,0.014,0.029,0.021,0.044
			c0.026,0.056,0.051,0.111,0.077,0.164c0.004,0.008,0.008,0.018,0.012,0.026c0.017,0.033,0.033,0.064,0.05,0.096
			c0.028,0.054,0.056,0.105,0.084,0.155c0.014,0.024,0.027,0.048,0.041,0.071c0.038,0.065,0.074,0.124,0.109,0.18
			c0.008,0.012,0.015,0.024,0.022,0.036c0.064,0.099,0.119,0.179,0.165,0.241c0.012,0.017,0.023,0.031,0.033,0.045
			c0.006,0.008,0.014,0.019,0.019,0.026v0.872c0,0.255-0.139,0.489-0.363,0.611l-0.697,0.38l-0.121-0.011l-0.05,0.104l-1.482,0.808
			C125.387,11.457,124.913,12.256,124.913,13.127z M136.501,13.716h-11.062v-0.589c0-0.677,0.369-1.299,0.964-1.623l2.35-1.282
			c0.393-0.215,0.637-0.626,0.637-1.074V8.09v0l-0.051-0.061l-0.01-0.012c-0.001-0.001-0.017-0.021-0.043-0.055
			c-0.002-0.002-0.003-0.004-0.005-0.006c-0.014-0.018-0.03-0.04-0.049-0.066c0-0.001-0.001-0.001-0.001-0.001
			c-0.039-0.055-0.089-0.125-0.143-0.211c-0.001-0.002-0.002-0.004-0.004-0.006c-0.026-0.04-0.053-0.084-0.081-0.131
			c-0.002-0.003-0.004-0.007-0.006-0.011c-0.06-0.1-0.123-0.213-0.186-0.338c0,0,0,0,0-0.001c-0.033-0.067-0.067-0.138-0.1-0.211
			l0,0c-0.004-0.01-0.009-0.02-0.014-0.031l0,0c-0.014-0.033-0.029-0.067-0.044-0.103c-0.005-0.013-0.011-0.026-0.016-0.04
			c-0.014-0.035-0.028-0.069-0.042-0.109c-0.027-0.072-0.052-0.146-0.076-0.224l-0.014-0.047c-0.002-0.005-0.003-0.011-0.005-0.016
			c-0.025-0.083-0.048-0.168-0.068-0.256l-0.024-0.104l-0.09-0.058c-0.153-0.099-0.244-0.264-0.244-0.442V4.498
			c0-0.148,0.063-0.285,0.176-0.388l0.087-0.078v-1.64V2.298l-0.007-0.006c-0.009-0.19,0.002-0.773,0.427-1.258
			c0.436-0.498,1.181-0.75,2.213-0.75c1.028,0,1.772,0.25,2.209,0.745c0.513,0.58,0.428,1.321,0.427,1.328l-0.002,1.675l0.087,0.078
			c0.114,0.103,0.176,0.24,0.176,0.388v1.053c0,0.23-0.151,0.431-0.375,0.5l-0.131,0.04l-0.042,0.13
			c-0.176,0.548-0.427,1.054-0.746,1.505c-0.078,0.111-0.154,0.209-0.22,0.284l-0.066,0.075v1.086c0,0.466,0.259,0.885,0.676,1.094
			l2.516,1.258c0.631,0.315,1.022,0.949,1.022,1.654V13.716z"/>
	</g>
	<rect id="XMLID_76_" x="119.127" y="-3" style="fill:none;" width="20" height="20"/>
</g>
<g id="XMLID_532_">
	<rect id="XMLID_75_" x="90.602" y="-3" style="fill:none;" width="20" height="20"/>
	<g id="XMLID_4_">
		<path id="XMLID_1039_" style="fill:none;stroke:#CCCCCC;stroke-width:0.75;stroke-miterlimit:10;" d="M97.379,14.434h-3.883
			c-0.134,0-0.243-0.109-0.243-0.243V6.628c0-0.134,0.109-0.243,0.243-0.243h3.883c0.134,0,0.243,0.109,0.243,0.243v7.562
			C97.622,14.325,97.513,14.434,97.379,14.434z"/>
		<path id="XMLID_1036_" style="fill:none;stroke:#CCCCCC;stroke-width:0.75;stroke-miterlimit:10;" d="M107.627,14.434h-7.142
			c-0.18,0-0.325-0.146-0.325-0.325V6.71c0-0.18,0.146-0.325,0.325-0.325h7.142c0.18,0,0.325,0.146,0.325,0.325v7.399
			C107.952,14.288,107.807,14.434,107.627,14.434z"/>
		<path id="XMLID_1005_" style="fill:none;stroke:#CCCCCC;stroke-width:0.75;stroke-miterlimit:10;" d="M107.637,3.591H93.568
			c-0.174,0-0.316-0.141-0.316-0.316v-3.393c0-0.174,0.141-0.316,0.316-0.316h14.069c0.174,0,0.316,0.141,0.316,0.316v3.393
			C107.952,3.449,107.811,3.591,107.637,3.591z"/>
	</g>
</g>
<g id="XMLID_535_">
	<rect id="XMLID_236_" x="0" y="0" style="fill:none;" width="14" height="14"/>
	<g id="XMLID_229_">
		<path id="XMLID_231_" style="fill:#505050;" d="M8.338,6.671l4.851-4.851c0.301-0.301,0.301-0.79,0-1.091
			c-0.301-0.301-0.79-0.301-1.091,0L7.247,5.58L2.395,0.728c-0.301-0.301-0.79-0.301-1.091,0c-0.301,0.301-0.301,0.79,0,1.091
			l4.852,4.851l-4.852,4.851c-0.301,0.301-0.301,0.79,0,1.091c0.151,0.15,0.348,0.226,0.545,0.226s0.395-0.075,0.545-0.226
			l4.852-4.851l4.851,4.851c0.151,0.151,0.348,0.226,0.545,0.226s0.395-0.075,0.545-0.226c0.301-0.301,0.301-0.79,0-1.091
			L8.338,6.671z"/>
	</g>
</g>
<g id="XMLID_537_">
	<rect id="XMLID_283_" x="-49.475" y="0" style="fill:none;" width="14" height="14"/>
	<g id="XMLID_280_">
		<path id="XMLID_282_" style="fill:none;stroke:#1D5DAA;stroke-width:0.7497;stroke-miterlimit:10;" d="M-35.975,6.667
			c0,0-2.68,3.937-6.5,3.937s-6.5-3.937-6.5-3.937s2.521-3.937,6.5-3.937S-35.975,6.667-35.975,6.667z"/>
		
			<circle id="XMLID_281_" style="fill:none;stroke:#1D5DAA;stroke-width:0.7497;stroke-miterlimit:10;" cx="-42.475" cy="6.667" r="2.434"/>
	</g>
</g>
<g id="XMLID_539_">
	<rect id="XMLID_288_" x="-77.229" y="1" style="fill:none;" width="12" height="12"/>
	<g id="XMLID_941_">
		<g id="XMLID_222_">
			<path id="XMLID_223_" style="fill:#505050;" d="M-71.765,10.783l-4.65-4.65c-0.296-0.296-0.296-0.775,0-1.071
				c0.296-0.296,0.775-0.296,1.071,0l4.115,4.115l4.115-4.115c0.296-0.296,0.775-0.296,1.071,0c0.296,0.296,0.296,0.775,0,1.071
				l-4.65,4.65c-0.148,0.148-0.342,0.222-0.535,0.222C-71.423,11.004-71.617,10.93-71.765,10.783z"/>
		</g>
	</g>
</g>
<g id="XMLID_540_">
	<rect id="XMLID_289_" x="-92.357" y="1" style="fill:none;" width="12" height="12"/>
	<path id="XMLID_890_" style="fill:#1D5DAA;" d="M-86.893,9.861l-4.65-4.65c-0.296-0.296-0.296-0.775,0-1.071
		c0.296-0.296,0.775-0.296,1.071,0l4.115,4.115l4.115-4.115c0.296-0.296,0.775-0.296,1.071,0c0.296,0.296,0.296,0.775,0,1.071
		l-4.65,4.65c-0.148,0.148-0.342,0.222-0.535,0.222C-86.551,10.083-86.745,10.009-86.893,9.861z"/>
</g>
<g id="XMLID_542_">
	<rect id="XMLID_341_" x="-146.145" y="-2.873" style="fill:none;" width="17" height="17"/>
	<g id="Outline_5_">
		<g id="ui_x5F_spec_x5F_header_copy_4_5_">
		</g>
		<path id="XMLID_992_" style="fill:#1D5DAA;" d="M-145.645,8.827v1.6h16v-1.6H-145.645z M-145.645,4.827v1.6h16v-1.6H-145.645z
			 M-145.645,0.827v1.6h16v-1.6H-145.645z"/>
	</g>
</g>
<g id="XMLID_560_">
	<rect id="XMLID_349_" x="-167.039" y="-2.873" style="fill:none;" width="17" height="17"/>
	<g id="Outline_6_">
		<g id="ui_x5F_spec_x5F_header_copy_4_6_">
		</g>
		<path id="XMLID_344_" style="fill:#1D5DAA;" d="M-166.539,9.585v1.6h9.891v-1.6H-166.539z M-166.539,5.585v1.6h16v-1.6H-166.539z
			 M-166.539,1.585v1.6h16v-1.6H-166.539z"/>
	</g>
</g>
<g id="XMLID_562_">
	<rect id="XMLID_422_" x="-212.978" y="-4.373" style="fill:none;" width="20" height="20"/>
	
		<use xlink:href="#New_Symbol_29"  width="18.52" height="15.034" id="XMLID_26_" x="-9.26" y="-7.517" transform="matrix(1 0 0 -1 -202.9779 5.6269)" style="overflow:visible;"/>
</g>
<g id="XMLID_561_">
	<rect id="XMLID_366_" x="-191.645" y="-4.373" style="fill:none;" width="20" height="20"/>
	
		<use xlink:href="#New_Symbol_19"  width="17.001" height="17" id="XMLID_1113_" x="-8.501" y="-8.501" transform="matrix(1 0 0 -1 -181.6443 5.6265)" style="overflow:visible;"/>
</g>
<g id="XMLID_563_">
	<rect id="XMLID_423_" x="-234.978" y="-4.373" style="fill:none;" width="20" height="20"/>
	
		<use xlink:href="#New_Symbol_28"  width="18.226" height="15.034" id="XMLID_16_" x="-9.113" y="-7.517" transform="matrix(1 0 0 -1 -224.9779 5.6269)" style="overflow:visible;"/>
</g>
<g id="XMLID_534_">
	<rect id="XMLID_17_" x="42.311" y="-3" style="fill:none;" width="20" height="20"/>
	<g id="XMLID_1016_">
		<path id="XMLID_1119_" style="fill:none;stroke:#CCCCCC;stroke-width:0.75;stroke-miterlimit:10;" d="M60.811,11.154
			c0,0.248-0.201,0.45-0.45,0.45h-16.1c-0.248,0-0.45-0.201-0.45-0.45V1.429c0-0.248,0.201-0.45,0.45-0.45h16.1
			c0.248,0,0.45,0.201,0.45,0.45V11.154z"/>
		
			<line id="XMLID_1117_" style="fill:none;stroke:#CCCCCC;stroke-width:0.75;stroke-linecap:round;stroke-linejoin:round;stroke-miterlimit:10;" x1="48.415" y1="13.021" x2="54.79" y2="13.021"/>
		<g id="XMLID_1114_">
			
				<circle id="XMLID_1116_" style="fill:none;stroke:#CCCCCC;stroke-width:0.6964;stroke-linecap:round;stroke-linejoin:round;stroke-miterlimit:10;" cx="55.146" cy="6.671" r="2.604"/>
			
				<polyline id="XMLID_1115_" style="fill:none;stroke:#CCCCCC;stroke-width:0.6964;stroke-linecap:round;stroke-linejoin:round;stroke-miterlimit:10;" points="
				56.928,4.771 55.146,6.671 57.568,7.626 			"/>
		</g>
		<g id="XMLID_1043_">
			
				<line id="XMLID_1075_" style="fill:none;stroke:#CCCCCC;stroke-width:0.7083;stroke-linecap:round;stroke-linejoin:round;stroke-miterlimit:10;" x1="45.936" y1="7.708" x2="45.936" y2="9.125"/>
			
				<line id="XMLID_1052_" style="fill:none;stroke:#CCCCCC;stroke-width:0.7083;stroke-linecap:round;stroke-linejoin:round;stroke-miterlimit:10;" x1="47.352" y1="6.292" x2="47.352" y2="9.125"/>
			
				<line id="XMLID_1048_" style="fill:none;stroke:#CCCCCC;stroke-width:0.7083;stroke-linecap:round;stroke-linejoin:round;stroke-miterlimit:10;" x1="48.769" y1="5.583" x2="48.769" y2="9.125"/>
			
				<line id="XMLID_1047_" style="fill:none;stroke:#CCCCCC;stroke-width:0.7083;stroke-linecap:round;stroke-linejoin:round;stroke-miterlimit:10;" x1="50.186" y1="4.875" x2="50.186" y2="9.125"/>
		</g>
	</g>
</g>
<g id="XMLID_536_">
	<rect id="XMLID_279_" x="-25.289" y="0" style="fill:none;" width="14" height="14"/>
	<path id="XMLID_860_" style="fill:none;stroke:#1D5DAA;stroke-width:0.9211;stroke-linejoin:round;stroke-miterlimit:10;" d="
		M-15.08,1.016c0,0,0.011,0,0.018,0l0.06,0.007c0.183,0.021,0.351,0.042,0.485,0.098c0.955,0.386,1.658,1.075,2.083,2.044
		c0.049,0.112,0.081,0.256,0.112,0.407c0.011,0.056,0.025,0.112,0.035,0.169c-0.014,0.063-0.039,0.105-0.088,0.151
		c-2.764,2.757-5.524,5.521-8.284,8.281c-0.046,0.046-0.088,0.067-0.151,0.081c-0.987,0.207-1.97,0.414-2.957,0.622l-0.52,0.109
		l0.098-0.46c0.214-1.011,0.428-2.026,0.646-3.038c0.007-0.032,0.035-0.081,0.067-0.116c0.611-0.618,1.222-1.233,1.837-1.844
		l1.668-1.668c1.591-1.591,3.182-3.182,4.769-4.776C-15.136,1.026-15.105,1.016-15.08,1.016z"/>
</g>
<g id="XMLID_541_">
	<rect id="XMLID_480_" x="-122.145" y="-2.873" style="fill:none;" width="17" height="17"/>
	<g id="XMLID_340_">
		<g id="XMLID_744_">
			<g id="XMLID_766_">
				<path id="XMLID_767_" style="fill:#1D5DAA;" d="M-108.111,13.174h-0.871V-1.203c0-0.107-0.087-0.193-0.193-0.193h-9.277
					c-0.106,0-0.193,0.086-0.193,0.193v14.377h-0.871V-1.203c0-0.586,0.477-1.063,1.063-1.063h9.277
					c0.587,0,1.064,0.477,1.064,1.063V13.174z"/>
			</g>
			<g id="XMLID_764_">
				<path id="XMLID_765_" style="fill:#1D5DAA;" d="M-106.08,13.521h-15.129c-0.24,0-0.435-0.195-0.435-0.435
					c0-0.24,0.195-0.435,0.435-0.435h15.129c0.24,0,0.435,0.195,0.435,0.435C-105.645,13.326-105.84,13.521-106.08,13.521z"/>
			</g>
			<g id="XMLID_762_">
				<path id="XMLID_763_" style="fill:#1D5DAA;" d="M-111.996,13.085h-0.58V9.673c0-0.186-0.151-0.338-0.338-0.338h-1.798
					c-0.186,0-0.338,0.152-0.338,0.338v3.412h-0.58V9.673c0-0.507,0.412-0.918,0.918-0.918h1.798c0.506,0,0.918,0.412,0.918,0.918
					V13.085z"/>
			</g>
			<g id="XMLID_745_">
				<g id="XMLID_758_">
					<path id="XMLID_759_" style="fill:#1D5DAA;" d="M-114.975,3.091h-1.919c-0.32,0-0.58-0.261-0.58-0.58V0.591
						c0-0.32,0.26-0.58,0.58-0.58h1.919c0.32,0,0.58,0.261,0.58,0.58v1.919C-114.394,2.83-114.654,3.091-114.975,3.091z
						 M-116.893,0.591v1.919h1.919l0,0V0.591H-116.893z"/>
				</g>
				<g id="XMLID_754_">
					<path id="XMLID_755_" style="fill:#1D5DAA;" d="M-110.734,3.091h-1.919c-0.32,0-0.58-0.261-0.58-0.58V0.591
						c0-0.32,0.26-0.58,0.58-0.58h1.919c0.32,0,0.58,0.261,0.58,0.58v1.919C-110.154,2.83-110.414,3.091-110.734,3.091z
						 M-112.653,0.591v1.919h1.919l0,0V0.591H-112.653z"/>
				</g>
				<g id="XMLID_750_">
					<path id="XMLID_751_" style="fill:#1D5DAA;" d="M-114.975,7.211h-1.919c-0.32,0-0.58-0.261-0.58-0.58V4.711
						c0-0.32,0.26-0.58,0.58-0.58h1.919c0.32,0,0.58,0.261,0.58,0.58V6.63C-114.394,6.95-114.654,7.211-114.975,7.211z
						 M-116.893,4.711V6.63h1.919V4.711H-116.893z"/>
				</g>
				<g id="XMLID_746_">
					<path id="XMLID_747_" style="fill:#1D5DAA;" d="M-110.734,7.211h-1.919c-0.32,0-0.58-0.261-0.58-0.58V4.711
						c0-0.32,0.26-0.58,0.58-0.58h1.919c0.32,0,0.58,0.261,0.58,0.58V6.63C-110.154,6.95-110.414,7.211-110.734,7.211z
						 M-112.653,4.711V6.63h1.919V4.711H-112.653z"/>
				</g>
			</g>
		</g>
	</g>
</g>
<g id="XMLID_310_">
	<rect id="XMLID_709_" x="-256.247" y="-4.373" style="fill:none;" width="20" height="20"/>
	<g id="XMLID_424_">
		<g id="XMLID_713_">
			<g id="XMLID_741_">
				<path id="XMLID_742_" style="fill:#1D5DAA;" d="M-240.713,13.174h-0.871V-1.203c0-0.107-0.087-0.193-0.193-0.193h-9.277
					c-0.106,0-0.193,0.086-0.193,0.193v14.377h-0.871V-1.203c0-0.586,0.477-1.063,1.063-1.063h9.277
					c0.587,0,1.064,0.477,1.064,1.063V13.174z"/>
			</g>
			<g id="XMLID_739_">
				<path id="XMLID_740_" style="fill:#1D5DAA;" d="M-238.682,13.521h-15.129c-0.24,0-0.435-0.195-0.435-0.435
					c0-0.24,0.195-0.435,0.435-0.435h15.129c0.24,0,0.435,0.195,0.435,0.435C-238.247,13.326-238.442,13.521-238.682,13.521z"/>
			</g>
			<g id="XMLID_737_">
				<path id="XMLID_738_" style="fill:#1D5DAA;" d="M-244.599,13.085h-0.58V9.673c0-0.186-0.151-0.338-0.338-0.338h-1.798
					c-0.186,0-0.338,0.152-0.338,0.338v3.412h-0.58V9.673c0-0.507,0.412-0.918,0.918-0.918h1.798c0.506,0,0.918,0.412,0.918,0.918
					V13.085z"/>
			</g>
			<g id="XMLID_714_">
				<g id="XMLID_732_">
					<path id="XMLID_733_" style="fill:#1D5DAA;" d="M-247.577,3.091h-1.919c-0.32,0-0.58-0.261-0.58-0.58V0.591
						c0-0.32,0.26-0.58,0.58-0.58h1.919c0.32,0,0.58,0.261,0.58,0.58v1.919C-246.996,2.83-247.256,3.091-247.577,3.091z
						 M-249.495,0.591v1.919h1.919l0,0V0.591H-249.495z"/>
				</g>
				<g id="XMLID_724_">
					<path id="XMLID_725_" style="fill:#1D5DAA;" d="M-243.336,3.091h-1.919c-0.32,0-0.58-0.261-0.58-0.58V0.591
						c0-0.32,0.26-0.58,0.58-0.58h1.919c0.32,0,0.58,0.261,0.58,0.58v1.919C-242.756,2.83-243.016,3.091-243.336,3.091z
						 M-245.255,0.591v1.919h1.919l0,0V0.591H-245.255z"/>
				</g>
				<g id="XMLID_719_">
					<path id="XMLID_720_" style="fill:#1D5DAA;" d="M-247.577,7.211h-1.919c-0.32,0-0.58-0.261-0.58-0.58V4.711
						c0-0.32,0.26-0.58,0.58-0.58h1.919c0.32,0,0.58,0.261,0.58,0.58V6.63C-246.996,6.95-247.256,7.211-247.577,7.211z
						 M-249.495,4.711V6.63h1.919V4.711H-249.495z"/>
				</g>
				<g id="XMLID_715_">
					<path id="XMLID_716_" style="fill:#1D5DAA;" d="M-243.336,7.211h-1.919c-0.32,0-0.58-0.261-0.58-0.58V4.711
						c0-0.32,0.26-0.58,0.58-0.58h1.919c0.32,0,0.58,0.261,0.58,0.58V6.63C-242.756,6.95-243.016,7.211-243.336,7.211z
						 M-245.255,4.711V6.63h1.919V4.711H-245.255z"/>
				</g>
			</g>
		</g>
	</g>
</g>
</svg>
